<?xml version="1.0"?><svg viewBox="0 0 32 32" xmlns="http://www.w3.org/2000/svg"><g id="Guitar"><path d="M23.59,13.74h0c.29-.29,4.65-4.64,4.48-4.48a2.36,2.36,0,0,0,0-3.34,2.42,2.42,0,0,0-3.34,0L20.25,10.4a6.61,6.61,0,0,0-7.33,1.34,6.42,6.42,0,0,0-1.73,3.15,8.06,8.06,0,0,0-5.64,2.32A7.93,7.93,0,1,0,19.09,22.8a6.5,6.5,0,0,0,3.16-1.74A6.59,6.59,0,0,0,23.59,13.74Zm-10.8,7.45a2.31,2.31,0,1,1-3.26,0A2.29,2.29,0,0,1,12.79,21.19Zm1.06-1.06a3.78,3.78,0,0,0-.68-.53l2.5-2.51,1.23,1.22-2.51,2.51A3.57,3.57,0,0,0,13.85,20.13ZM18,17.25,16.74,16l1.49-1.49,1.22,1.22Zm2.55-2.55-1.22-1.22,1.5-1.5L22,13.2Zm2.83-5.27,1.22,1.22-1.49,1.49-1.22-1.22ZM25.8,7A.87.87,0,0,1,27,7a.86.86,0,0,1,0,1.22l-1.39,1.4L24.4,8.37ZM18.22,21.43a.74.74,0,0,0-.65.81,6.44,6.44,0,1,1-5.83-5.82.74.74,0,0,0,.81-.65,5,5,0,0,1,6.54-4.21L17.7,12.94h0L15.14,15.5h0l-3.56,3.56a3.75,3.75,0,0,0-3.11,1.07,3.8,3.8,0,0,0,5.38,5.38,3.69,3.69,0,0,0,1.08-3.11l3.55-3.56h0L21,16.29h0l1.38-1.38a5,5,0,0,1-4.21,6.53Z"/><path d="M12.9,5.3a2.29,2.29,0,1,0,2.28,2.28V2a.74.74,0,0,0-1.11-.66l-5.39,3A.76.76,0,0,0,8.29,5V6.83A2.28,2.28,0,1,0,9.79,9V5.4l3.89-2.13V5.45A2.21,2.21,0,0,0,12.9,5.3ZM7.51,9.75A.79.79,0,1,1,8.29,9,.79.79,0,0,1,7.51,9.75ZM12.9,8.37a.79.79,0,0,1-.78-.79.78.78,0,1,1,1.56,0A.79.79,0,0,1,12.9,8.37Z"/><path d="M28.64,21.22a.73.73,0,0,0-1-.35l-1.83.88a.74.74,0,0,0-.42.67v1.87a2.3,2.3,0,0,0-.79-.14,2.28,2.28,0,1,0,2.29,2.28V22.9l1.4-.68A.74.74,0,0,0,28.64,21.22Zm-4,6a.78.78,0,0,1,0-1.56.78.78,0,1,1,0,1.56Z"/></g></svg>