<?xml version="1.0"?><svg enable-background="new 0 0 200 200" id="Layer_1" version="1.1" viewBox="0 0 200 200" xml:space="preserve" xmlns="http://www.w3.org/2000/svg" xmlns:xlink="http://www.w3.org/1999/xlink"><g><path d="M76.707,30.007c1.933,0,3.5-1.567,3.5-3.5v-6.07c0-1.933-1.567-3.5-3.5-3.5s-3.5,1.567-3.5,3.5v6.07   C73.207,28.439,74.774,30.007,76.707,30.007z" fill="#1D1D1B"/><path d="M76.707,50.937c1.933,0,3.5-1.567,3.5-3.5v-6.07c0-1.933-1.567-3.5-3.5-3.5s-3.5,1.567-3.5,3.5v6.07   C73.207,49.369,74.774,50.937,76.707,50.937z" fill="#1D1D1B"/><path d="M84.137,37.437h6.07c1.933,0,3.5-1.567,3.5-3.5s-1.567-3.5-3.5-3.5h-6.07c-1.933,0-3.5,1.567-3.5,3.5   S82.204,37.437,84.137,37.437z" fill="#1D1D1B"/><path d="M63.207,37.437h6.07c1.933,0,3.5-1.567,3.5-3.5s-1.567-3.5-3.5-3.5h-6.07c-1.933,0-3.5,1.567-3.5,3.5   S61.274,37.437,63.207,37.437z" fill="#1D1D1B"/><path d="M165.882,113.226c-3.589,0-6.964,1.398-9.575,3.956c-2.601-2.557-5.977-3.956-9.576-3.956   c-3.795,0-7.352,1.567-10.017,4.417c-5.343,5.725-5.342,15.03,0.002,20.745c0,0,0,0,0.001,0l17.038,18.216   c0.661,0.708,1.587,1.109,2.557,1.109c0.969,0,1.895-0.402,2.556-1.11l14.918-15.959l2.119-2.256   c5.345-5.715,5.346-15.021,0-20.747C173.242,114.794,169.683,113.226,165.882,113.226z M170.797,133.601l-14.487,15.487   l-14.481-15.481c-2.88-3.081-2.879-8.1,0-11.185c1.325-1.416,3.066-2.196,4.902-2.196c1.848,0,3.59,0.778,4.911,2.197l2.113,2.259   c0.662,0.707,1.587,1.108,2.556,1.108c0.001,0,0.003,0,0.004,0c0.97-0.001,1.896-0.404,2.557-1.114l2.1-2.254   c1.325-1.416,3.069-2.196,4.911-2.196s3.585,0.78,4.907,2.194C173.672,125.507,173.673,130.525,170.797,133.601z" fill="#1D1D1B"/><path d="M131.397,93.497c7.514,0,14.92-2.929,20.503-8.513c1.367-1.366,1.367-3.583,0-4.949   c-1.367-1.367-3.582-1.367-4.949,0c-6.744,6.744-16.991,8.386-25.498,4.08c-1.728-0.872-3.83-0.183-4.703,1.543   c-0.873,1.725-0.182,3.83,1.543,4.703C122.463,92.471,126.948,93.497,131.397,93.497z" fill="#1D1D1B"/><path d="M180.158,51.062c-5.481-5.482-12.753-8.638-20.382-8.96c-0.336-7.712-3.487-14.909-8.965-20.387   c-0.657-0.656-1.547-1.025-2.476-1.025c-0.928,0-1.818,0.369-2.475,1.025l-8.445,8.444c-1.32-1.793-2.76-3.501-4.342-5.083   c-1.313-1.313-3.637-1.313-4.949,0l-20.1,20.101c-3.771,3.77-6.543,8.222-8.241,13.231c-0.62,1.83,0.361,3.817,2.192,4.438   c1.83,0.626,3.817-0.36,4.438-2.191c1.35-3.982,3.558-7.524,6.561-10.528l17.509-17.51c1.255,1.516,2.387,3.126,3.383,4.814   c2.537,4.297,4.149,9.006,4.794,14.011c0.213,1.604,0.32,3.215,0.32,4.79c0,0.06-0.003,0.118-0.003,0.178   c-4.144,0.627-8.157,1.831-11.961,3.612c-0.01,0.005-0.017,0.011-0.027,0.016c-4.645,2.162-8.849,5.107-12.496,8.754   c-1.367,1.366-1.367,3.583,0,4.949c0.684,0.684,1.579,1.025,2.475,1.025s1.791-0.342,2.475-1.025   c3.075-3.074,6.618-5.555,10.53-7.371c0.006-0.003,0.011-0.007,0.017-0.01c3.982-1.864,8.234-2.987,12.638-3.338   c0.002,0,0.004-0.001,0.006-0.001c0,0,0.001,0,0.001,0c7.666-0.627,15.216,1.1,21.815,5.001c1.682,0.985,3.288,2.112,4.804,3.366   l-17.509,17.51c-8.404,8.403-21.165,10.443-31.762,5.078c-2.583-1.301-4.936-3.007-7.004-5.083c-2.085-2.077-3.79-4.43-5.08-7.019   c-1.006-1.977-1.765-4.077-2.255-6.244c-0.428-1.885-2.303-3.065-4.187-2.642c-1.885,0.427-3.068,2.301-2.641,4.187   c0.618,2.732,1.575,5.382,2.831,7.848c1.103,2.213,2.472,4.285,4.049,6.214l-37.03,37.03v-6.785   c9.502-6.297,15.33-17.026,15.33-28.486c0-12.148-6.543-23.481-17.077-29.577c-1.084-0.627-2.422-0.627-3.506,0   C52.88,69.513,46.336,80.846,46.336,92.994c0,11.459,5.827,22.189,15.33,28.486v13.785l-9.249,9.249   c-0.028,0.027-0.056,0.055-0.083,0.083l-32.493,32.493c-1.367,1.366-1.367,3.583,0,4.949c0.684,0.684,1.58,1.025,2.475,1.025   s1.792-0.342,2.475-1.025l31.513-31.513h13.777c6.297,9.502,17.026,15.329,28.486,15.329c12.147,0,23.48-6.543,29.576-17.076   c0.628-1.084,0.628-2.422,0-3.506c-6.096-10.533-17.429-17.076-29.576-17.076c-11.46,0-22.189,5.827-28.486,15.329h-6.777   l4.336-4.336c0.001-0.001,0.001-0.001,0.002-0.002l43.005-43.005c1.915,1.565,3.977,2.93,6.182,4.039   c4.945,2.505,10.267,3.724,15.545,3.724c8.911,0,17.695-3.476,24.32-10.101l20.101-20.101c0.656-0.656,1.025-1.547,1.025-2.475   c0-0.929-0.369-1.819-1.025-2.476c-1.586-1.585-3.294-3.024-5.082-4.338l8.445-8.446C181.525,54.645,181.525,52.428,180.158,51.062   z M98.567,143.525h-19.54c5.064-5.239,12.107-8.329,19.54-8.329c8.965,0,17.373,4.484,22.411,11.829   c-5.038,7.345-13.446,11.829-22.411,11.829c-7.433,0-14.477-3.09-19.54-8.329h19.54c1.933,0,3.5-1.567,3.5-3.5   S100.5,143.525,98.567,143.525z M65.166,89.494c-1.933,0-3.5,1.567-3.5,3.5v19.54c-5.24-5.064-8.33-12.107-8.33-19.54   c0-8.966,4.484-17.374,11.83-22.412c7.345,5.038,11.83,13.446,11.83,22.412c0,7.433-3.09,14.476-8.33,19.54v-19.54   C68.666,91.062,67.099,89.494,65.166,89.494z M145.159,45.082c-0.184,0.088-0.372,0.17-0.555,0.262   c-0.794-3.147-1.93-6.18-3.403-9.072l6.954-6.952c2.848,3.833,4.463,8.422,4.64,13.267c-0.238,0.044-0.472,0.103-0.709,0.152   c-0.227,0.048-0.454,0.093-0.679,0.146c-0.482,0.112-0.959,0.239-1.433,0.375c-0.163,0.046-0.327,0.086-0.489,0.135   c-0.627,0.19-1.247,0.399-1.86,0.629c-0.155,0.058-0.305,0.125-0.459,0.185c-0.46,0.181-0.917,0.369-1.367,0.572   C145.583,44.877,145.372,44.98,145.159,45.082z M165.599,60.672c-6.091-3.11-12.77-4.738-19.62-4.778   c-0.009-1.06-0.071-2.13-0.159-3.201c3.202-2.015,6.856-3.237,10.69-3.546c5.771-0.481,11.453,1.168,16.042,4.572L165.599,60.672z" fill="#1D1D1B"/></g></svg>